<svg version="1.1" id="Layer_1" xmlns="http://www.w3.org/2000/svg" xmlns:xlink="http://www.w3.org/1999/xlink" x="0px" y="0px"
	 width="100%" viewBox="0 0 3509 2481" enable-background="new 0 0 3509 2481" xml:space="preserve">
<path fill="#FFFFFF" opacity="1.000000" stroke="none" 
	d="
M1968.000000,2484.000000 
	C1312.000122,2484.000000 657.000244,2484.000000 2.000264,2484.000000 
	C2.000176,1656.666992 2.000176,829.333862 2.000088,2.000597 
	C1171.999512,2.000398 2341.999023,2.000398 3511.999023,2.000199 
	C3511.999268,829.332703 3511.999268,1656.665405 3511.999512,2483.999023 
	C2997.666748,2484.000000 2483.333252,2484.000000 1968.000000,2484.000000 
M1708.337280,1371.000122 
	C1708.435669,1304.683105 1708.533203,1238.366089 1708.658081,1172.049072 
	C1708.658569,1171.797974 1709.044312,1171.542114 1709.261597,1171.298828 
	C1709.481689,1171.052124 1709.715820,1170.817749 1710.239990,1170.266602 
	C1712.291504,1170.266602 1714.615967,1170.268921 1716.940308,1170.266235 
	C1765.265991,1170.208862 1813.591797,1170.029541 1861.917114,1170.136841 
	C1893.293823,1170.206543 1924.459473,1172.577148 1955.081177,1180.037231 
	C2002.642700,1191.624268 2037.775146,1218.633789 2058.448975,1263.432129 
	C2069.148926,1286.617920 2074.504395,1311.360840 2077.893066,1336.476196 
	C2082.300049,1369.140015 2085.656494,1401.946411 2090.136963,1434.599243 
	C2092.746826,1453.617920 2096.670410,1472.456299 2100.030273,1491.531250 
	C2168.363770,1491.531250 2235.264893,1491.531250 2302.751953,1491.531250 
	C2302.155762,1488.755249 2301.595215,1486.209106 2301.063232,1483.657104 
	C2298.008545,1469.010742 2293.925781,1454.489624 2292.113281,1439.690674 
	C2287.540039,1402.348877 2283.731689,1364.906738 2280.104492,1327.457642 
	C2276.634277,1291.633301 2267.834961,1257.399658 2251.676514,1225.150757 
	C2233.338379,1188.551147 2207.271240,1159.755737 2169.048096,1143.219116 
	C2159.287354,1138.996216 2149.512695,1134.805664 2139.742188,1130.605347 
	C2137.220947,1129.521484 2134.691895,1128.456665 2131.151855,1126.952026 
	C2141.039307,1122.965698 2149.745850,1119.702759 2158.253662,1115.984741 
	C2206.796875,1094.770996 2244.194580,1061.753418 2265.817871,1012.646118 
	C2289.388184,959.116943 2296.345215,902.627747 2287.941895,845.415527 
	C2274.267334,752.311768 2222.000732,690.459961 2130.612793,663.811951 
	C2081.630615,649.529175 2031.123657,644.797119 1980.459717,644.358215 
	C1868.817505,643.391052 1757.162598,643.868591 1645.512939,643.792175 
	C1629.978760,643.781555 1614.985352,646.945068 1600.979736,653.522095 
	C1552.861206,676.118469 1527.820435,714.167542 1527.767090,767.364685 
	C1527.528076,1005.665344 1527.662842,1243.966431 1527.662720,1482.267334 
	C1527.662720,1485.186646 1527.662720,1488.105957 1527.662720,1491.395508 
	C1588.224121,1491.395508 1647.992676,1491.395508 1708.337280,1491.395508 
	C1708.337280,1451.557983 1708.337280,1412.279175 1708.337280,1371.000122 
M1348.076172,1222.866455 
	C1347.558716,1221.640015 1347.033813,1220.416870 1346.525024,1219.186768 
	C1275.687744,1047.965088 1204.640503,876.829712 1134.177002,705.454224 
	C1118.328125,666.907776 1081.323608,642.386597 1041.430908,643.630005 
	C1016.789368,644.398071 992.087463,644.353577 967.442688,643.639893 
	C927.581299,642.485596 890.902832,667.390991 875.402893,704.960266 
	C768.320190,964.511536 660.787781,1223.877319 553.418335,1483.310303 
	C552.332336,1485.934204 551.494141,1488.660645 550.494202,1491.468506 
	C617.504333,1491.468506 683.719177,1491.468506 750.300171,1491.468506 
	C835.027222,1277.442139 919.637207,1063.711182 1005.088501,847.855286 
	C1088.947510,1064.103516 1171.888184,1277.983643 1254.664307,1491.439697 
	C1323.151733,1491.439697 1390.634399,1491.439697 1459.270752,1491.439697 
	C1422.155518,1401.826294 1385.391968,1313.062012 1348.076172,1222.866455 
M2577.475342,859.000061 
	C2577.475342,805.016602 2577.311279,751.032532 2577.534912,697.049988 
	C2577.676270,662.921204 2549.795410,642.456482 2523.932129,643.474060 
	C2498.645752,644.468872 2473.288818,643.548828 2447.965088,643.746643 
	C2429.929688,643.887451 2416.092285,652.133301 2406.082764,666.919067 
	C2399.481201,676.670593 2397.756592,687.627075 2397.767090,699.253967 
	C2397.886963,829.213074 2397.687256,959.172668 2397.937744,1089.131348 
	C2398.012939,1128.099487 2398.447998,1167.100098 2400.193359,1206.019775 
	C2401.293701,1230.565674 2403.553467,1255.279907 2408.006104,1279.418213 
	C2430.360352,1400.605225 2518.727539,1465.841309 2617.064697,1482.024902 
	C2656.604736,1488.531982 2696.548096,1490.804077 2736.479492,1491.254761 
	C2815.110352,1492.142090 2893.755615,1491.745239 2972.395020,1491.827637 
	C2974.573242,1491.829956 2976.751953,1491.242432 2978.771729,1490.952759 
	C2978.771729,1440.442627 2978.771729,1390.630371 2978.771729,1340.131592 
	C2974.449219,1340.131592 2970.826416,1340.131714 2967.203857,1340.131714 
	C2920.218506,1340.131714 2873.233154,1340.052979 2826.248047,1340.156616 
	C2788.928955,1340.238892 2751.620605,1340.277832 2714.465332,1336.017334 
	C2690.289551,1333.245117 2666.299805,1329.627319 2643.573486,1320.327148 
	C2619.153320,1310.333740 2601.779541,1293.084229 2592.657959,1268.409302 
	C2588.656250,1257.584351 2585.322510,1246.011963 2584.544434,1234.584351 
	C2581.559570,1190.740356 2578.350342,1146.835693 2577.776123,1102.920288 
	C2576.721924,1022.292664 2577.475098,941.641479 2577.475342,859.000061 
M938.205139,1348.892944 
	C962.160278,1364.662231 988.315857,1371.101929 1016.954834,1368.380127 
	C1086.363770,1361.784180 1135.802002,1294.468384 1121.108154,1226.205933 
	C1107.004517,1160.686768 1044.265381,1120.127808 978.702087,1134.145142 
	C929.442566,1144.676758 890.172546,1188.468140 886.310669,1238.333008 
	C882.763855,1284.130005 899.783142,1320.889648 938.205139,1348.892944 
M2488.633789,1854.996948 
	C2488.633789,1818.525757 2488.633789,1782.054443 2488.633789,1745.509888 
	C2478.155762,1745.509888 2467.365723,1745.509888 2456.470459,1745.509888 
	C2455.956543,1751.017090 2455.506592,1755.838013 2454.942627,1761.882446 
	C2452.223389,1759.658447 2450.685547,1758.008545 2448.815674,1756.940430 
	C2441.359375,1752.680908 2434.254639,1746.953003 2426.202393,1744.731323 
	C2381.758301,1732.468872 2337.930176,1754.738281 2324.443359,1799.663940 
	C2320.404297,1813.119629 2319.146484,1826.985596 2321.495850,1841.136841 
	C2326.277344,1869.934448 2340.849121,1891.478516 2368.397705,1902.093384 
	C2396.392822,1912.880371 2423.223877,1910.066162 2447.305420,1890.762329 
	C2448.429443,1889.861328 2449.838867,1889.317261 2452.232910,1887.985352 
	C2451.378906,1896.524902 2451.173584,1903.889648 2449.820557,1911.036865 
	C2446.658691,1927.740845 2437.193848,1939.213989 2420.621338,1944.462280 
	C2408.941162,1948.161133 2397.103760,1948.419922 2385.079590,1947.036377 
	C2371.081055,1945.425659 2357.915039,1941.143921 2345.010498,1934.120239 
	C2341.561279,1943.769043 2338.373047,1952.687866 2335.184082,1961.608643 
	C2337.767090,1963.205322 2339.371826,1964.403687 2341.145752,1965.245361 
	C2343.841797,1966.524414 2346.604736,1967.704346 2349.427246,1968.669800 
	C2375.918213,1977.731812 2402.876465,1979.053467 2430.045410,1972.561646 
	C2462.193848,1964.880249 2482.162109,1944.994995 2486.184814,1911.761841 
	C2488.374756,1893.672363 2487.904053,1875.260864 2488.633789,1854.996948 
M1154.570557,1832.551514 
	C1149.866333,1819.124390 1141.195312,1808.726074 1129.239014,1800.944458 
	C1135.839478,1796.601196 1141.954468,1793.166992 1147.409180,1788.890747 
	C1177.992188,1764.914185 1175.944092,1712.695557 1138.857300,1693.934204 
	C1129.806396,1689.355469 1119.731567,1686.091919 1109.752808,1684.198120 
	C1086.353638,1679.757080 1062.646118,1681.274780 1039.052246,1683.024414 
	C1030.222534,1683.679321 1021.455322,1685.180664 1012.724976,1686.287842 
	C1012.724976,1760.775635 1012.724976,1834.218384 1012.724976,1907.571289 
	C1025.425293,1907.571289 1037.534546,1907.571289 1050.409424,1907.571289 
	C1050.409424,1876.045044 1050.409424,1845.224976 1050.409424,1813.803345 
	C1058.801147,1813.803345 1066.414429,1813.779785 1074.027466,1813.807617 
	C1101.420532,1813.907837 1113.459839,1822.955444 1121.007446,1849.104370 
	C1121.467773,1850.698853 1121.780640,1852.335571 1122.216553,1853.937744 
	C1125.534302,1866.128052 1128.668701,1878.373413 1132.276611,1890.477539 
	C1134.053711,1896.439575 1136.714600,1902.138428 1138.856201,1907.649048 
	C1152.575562,1907.649048 1165.302612,1907.649048 1177.718506,1907.649048 
	C1174.019165,1896.853760 1170.168335,1886.639282 1167.031006,1876.210083 
	C1162.818726,1862.207886 1159.157837,1848.039795 1154.570557,1832.551514 
M1673.288208,1798.445679 
	C1667.682495,1817.074585 1667.095215,1835.978027 1672.279419,1854.614502 
	C1691.039551,1922.053345 1767.943848,1924.622925 1799.811646,1892.171631 
	C1800.844238,1891.119995 1802.143799,1890.330688 1804.372925,1888.601685 
	C1805.026733,1895.797729 1805.557983,1901.643433 1806.110962,1907.728271 
	C1817.542236,1907.728271 1828.682739,1907.728271 1838.910156,1907.728271 
	C1838.910156,1828.814697 1838.910156,1750.453491 1838.910156,1671.973877 
	C1825.679443,1671.973877 1813.785278,1671.973877 1800.963135,1671.973877 
	C1800.963135,1686.649414 1800.963257,1700.911255 1800.963257,1715.173218 
	C1800.963257,1729.301636 1800.963135,1743.430054 1800.963135,1759.663574 
	C1791.331909,1751.539673 1782.522705,1746.437134 1772.426636,1744.035156 
	C1725.116211,1732.779785 1685.765869,1758.156494 1673.288208,1798.445679 
M1526.024292,1897.142212 
	C1538.852905,1887.952026 1547.995850,1875.861816 1553.399536,1861.126587 
	C1560.447388,1841.908203 1561.990601,1822.042480 1557.199341,1802.179321 
	C1549.707642,1771.121704 1531.187988,1749.677368 1499.131836,1743.251953 
	C1472.072754,1737.828125 1446.782959,1742.624268 1426.059814,1762.739990 
	C1425.214844,1763.560181 1424.276367,1764.284058 1422.405273,1765.891602 
	C1421.859131,1758.120850 1421.409424,1751.723511 1420.959351,1745.321045 
	C1408.804688,1745.321045 1397.941895,1745.321045 1387.475342,1745.321045 
	C1387.475342,1821.233032 1387.475342,1896.628296 1387.475342,1972.283203 
	C1400.863525,1972.283203 1413.034546,1972.283203 1426.185547,1972.283203 
	C1426.185547,1946.008423 1426.185547,1920.323730 1426.185547,1893.526367 
	C1436.230957,1902.211914 1446.380005,1907.590576 1457.965332,1910.006348 
	C1481.858887,1914.988770 1504.230713,1911.366455 1526.024292,1897.142212 
M379.015198,1839.802002 
	C396.915009,1839.802002 414.814819,1839.802002 432.560333,1839.802002 
	C441.416901,1863.160889 449.886932,1885.500244 458.403564,1907.962646 
	C471.694244,1907.962646 484.626007,1907.962646 498.764069,1907.962646 
	C470.163025,1832.572754 441.820038,1757.862915 413.632507,1683.562988 
	C398.778412,1683.562988 385.162323,1683.562988 370.923401,1683.562988 
	C342.743683,1758.168701 314.588409,1832.709473 286.244629,1907.749390 
	C299.886475,1907.749390 312.700104,1907.749390 325.525269,1907.749390 
	C333.961853,1884.897949 342.228180,1862.507568 350.610931,1839.802002 
	C359.750946,1839.802002 368.388275,1839.802002 379.015198,1839.802002 
M2297.687500,1823.228516 
	C2297.195557,1818.603394 2296.960205,1813.933960 2296.170166,1809.360352 
	C2291.063477,1779.793579 2274.709229,1759.193481 2246.839355,1747.823364 
	C2232.980469,1742.169678 2218.494873,1741.015747 2203.750732,1741.596191 
	C2158.274658,1743.386108 2125.896240,1772.615356 2120.802734,1817.725098 
	C2116.553711,1855.355591 2133.533447,1892.704468 2175.385010,1907.086426 
	C2187.137207,1911.124756 2199.308594,1912.515625 2211.745117,1912.035522 
	C2252.250244,1910.471924 2297.368164,1886.092773 2297.687500,1823.228516 
M771.000793,1817.891724 
	C768.241272,1819.744751 765.348267,1821.428223 762.743958,1823.478394 
	C746.531921,1836.241333 740.392090,1853.169678 744.199951,1873.091064 
	C747.869202,1892.287354 760.726929,1904.087402 779.030823,1909.180420 
	C802.790955,1915.791626 825.197388,1911.982056 845.494324,1897.519043 
	C847.285095,1896.243042 849.031921,1894.905273 851.611694,1892.994263 
	C852.647461,1898.573730 853.478027,1903.048218 854.350830,1907.749756 
	C865.984131,1907.749756 877.523743,1907.749756 888.194519,1907.749756 
	C887.453857,1893.332275 886.362915,1879.414917 886.111023,1865.482300 
	C885.731567,1844.492554 886.465820,1823.474731 885.775696,1802.500244 
	C884.672913,1768.985107 866.256836,1747.326294 834.010376,1742.659668 
	C809.210083,1739.070557 784.824036,1741.905518 761.965332,1753.231567 
	C759.688354,1754.359619 757.611816,1755.892334 755.113098,1757.441284 
	C758.319336,1765.690918 761.305847,1773.375366 764.433960,1781.423950 
	C767.709045,1779.883911 770.342529,1778.602417 773.010620,1777.397705 
	C788.487427,1770.409058 804.549133,1766.972168 821.558777,1769.635498 
	C839.425476,1772.433228 847.907959,1782.704956 847.730225,1802.238647 
	C844.141052,1802.238647 840.522827,1802.047852 836.930054,1802.269775 
	C814.565369,1803.650879 792.483704,1806.325562 771.000793,1817.891724 
M1280.651001,1741.737671 
	C1255.728516,1740.462036 1231.873169,1743.777344 1209.891602,1757.201172 
	C1213.254761,1765.758667 1216.242554,1773.361084 1219.416992,1781.438354 
	C1222.924438,1779.731323 1225.510376,1778.343506 1228.195923,1777.187256 
	C1243.740845,1770.494019 1259.772949,1766.891235 1276.795166,1769.659912 
	C1294.479492,1772.536499 1302.864624,1782.827881 1302.596436,1800.956909 
	C1288.358276,1802.634766 1274.104126,1803.827515 1260.025146,1806.104004 
	C1244.454468,1808.621582 1229.648315,1813.746094 1217.195923,1823.879883 
	C1201.664551,1836.519287 1195.171265,1853.043091 1199.056274,1872.690186 
	C1203.097656,1893.127930 1216.803589,1905.105103 1236.462280,1909.846191 
	C1259.660278,1915.440796 1281.373047,1911.413086 1300.893433,1897.199707 
	C1302.608521,1895.950806 1304.450439,1894.875977 1306.873901,1893.305176 
	C1307.754639,1898.847290 1308.459961,1903.285767 1309.256348,1908.296997 
	C1321.216553,1908.162231 1332.598145,1908.549683 1343.849731,1908.034546 
	C1343.031250,1899.419556 1341.871338,1892.151611 1341.735352,1884.864502 
	C1341.300537,1861.560059 1341.303833,1838.247803 1341.006470,1814.940308 
	C1340.921631,1808.288452 1340.692749,1801.610718 1340.008423,1794.998901 
	C1337.383667,1769.635010 1322.182007,1751.263794 1298.231689,1744.608276 
	C1293.137329,1743.192627 1287.772583,1742.750977 1280.651001,1741.737671 
M2004.358032,1866.729370 
	C2004.358032,1805.845093 2004.358032,1744.960815 2004.358032,1683.848877 
	C1991.477417,1683.848877 1979.311035,1683.848877 1967.165283,1683.848877 
	C1967.165283,1758.872437 1967.165283,1833.291260 1967.165283,1907.621460 
	C2014.523193,1907.621460 2061.277832,1907.621460 2107.589600,1907.621460 
	C2107.589600,1897.502197 2107.589600,1888.060913 2107.589600,1878.005127 
	C2072.983887,1878.005127 2039.141113,1878.005127 2004.358032,1878.005127 
	C2004.358032,1874.494507 2004.358032,1871.579468 2004.358032,1866.729370 
M2773.372559,1712.472046 
	C2773.372559,1722.983398 2773.372559,1733.494629 2773.372559,1744.810791 
	C2767.835938,1744.810791 2763.560303,1744.810791 2759.284912,1744.810791 
	C2755.066162,1744.810791 2750.847168,1744.810791 2746.526367,1744.810791 
	C2746.526367,1754.735352 2746.526367,1763.309937 2746.526367,1773.331665 
	C2755.605225,1773.331665 2764.336426,1773.331665 2773.371094,1773.331665 
	C2773.371094,1794.090576 2773.302002,1813.401001 2773.396484,1832.710571 
	C2773.455322,1844.696899 2773.216797,1856.721802 2774.082520,1868.658936 
	C2775.467529,1887.756714 2783.699707,1902.544678 2803.084473,1908.697388 
	C2820.124756,1914.106201 2837.020264,1912.447998 2853.814697,1907.257690 
	C2853.814697,1902.249023 2853.987061,1897.951660 2853.767334,1893.674561 
	C2853.536133,1889.176636 2852.929688,1884.697998 2852.492188,1880.259888 
	C2844.847656,1880.923950 2838.274170,1881.921143 2831.693115,1881.974365 
	C2819.581787,1882.072266 2813.852783,1877.193115 2811.792725,1865.456299 
	C2811.048828,1861.220093 2810.699219,1856.863892 2810.679932,1852.560059 
	C2810.574951,1829.244995 2810.614746,1805.929321 2810.647705,1782.613770 
	C2810.651855,1779.719971 2810.910156,1776.826416 2811.095215,1773.015625 
	C2826.241455,1773.015625 2840.763916,1773.015625 2855.652344,1773.015625 
	C2855.652344,1763.255859 2855.652344,1754.466797 2855.652344,1745.047363 
	C2840.444824,1744.264404 2825.610107,1745.526001 2810.628906,1744.319336 
	C2810.628906,1735.727661 2810.663330,1728.409058 2810.619385,1721.090820 
	C2810.576416,1713.951660 2810.453125,1706.812866 2810.356445,1698.969360 
	C2798.368408,1701.804810 2787.702881,1704.209106 2777.129150,1706.964600 
	C2775.654053,1707.348999 2774.628906,1709.459473 2773.372559,1712.472046 
M2621.182129,1766.431885 
	C2607.981934,1790.158936 2612.812256,1811.369019 2635.632080,1825.790161 
	C2643.686035,1830.880127 2652.975098,1834.029297 2661.738037,1837.980957 
	C2668.684326,1841.113647 2675.910400,1843.704712 2682.607910,1847.291138 
	C2690.004150,1851.251831 2693.442871,1857.818359 2692.392090,1866.424194 
	C2691.366455,1874.824951 2685.780029,1879.207031 2678.507568,1881.781494 
	C2668.826416,1885.208984 2658.701904,1885.345215 2648.940430,1882.949585 
	C2638.518311,1880.391846 2628.436768,1876.445068 2617.785645,1872.967407 
	C2614.687500,1881.466431 2611.528564,1890.131714 2608.250000,1899.125244 
	C2620.790039,1906.948730 2634.415527,1909.779907 2648.314941,1911.176270 
	C2668.160156,1913.169678 2687.606201,1911.547607 2705.552246,1901.778442 
	C2736.493164,1884.935181 2738.644531,1841.866699 2708.554932,1823.775635 
	C2699.518066,1818.342285 2689.416748,1814.668823 2679.765381,1810.271362 
	C2672.828125,1807.110229 2665.362549,1804.832764 2658.956055,1800.839722 
	C2646.744385,1793.228271 2647.785156,1778.367188 2661.033936,1772.580688 
	C2666.591309,1770.153320 2673.257080,1769.657349 2679.459229,1769.440430 
	C2691.619873,1769.014893 2702.786621,1773.320190 2714.236328,1779.237549 
	C2717.760010,1770.051514 2721.016602,1761.561768 2724.454346,1752.599121 
	C2702.343750,1741.323730 2680.032227,1738.915527 2656.829834,1743.676147 
	C2642.656738,1746.584229 2630.734131,1753.390625 2621.182129,1766.431885 
M3198.821045,1909.980957 
	C3209.028076,1907.918457 3218.699707,1904.567627 3227.229736,1898.376709 
	C3243.711182,1886.414429 3250.314453,1866.219482 3243.974365,1846.961304 
	C3240.225342,1835.573853 3232.467529,1827.329712 3222.176025,1821.973389 
	C3212.192627,1816.777710 3201.475830,1813.010132 3191.202148,1808.348022 
	C3184.881104,1805.479492 3178.264893,1802.826538 3172.720947,1798.787231 
	C3165.445312,1793.486450 3164.898926,1782.945190 3171.576172,1776.944824 
	C3175.309082,1773.589966 3180.561768,1771.008789 3185.502686,1770.094238 
	C3198.243896,1767.735718 3210.666992,1769.984131 3222.477783,1775.398560 
	C3225.075195,1776.589233 3227.734619,1777.644409 3230.838135,1778.963013 
	C3234.271240,1769.894775 3237.409912,1761.604126 3240.680664,1752.963867 
	C3238.772949,1751.812378 3237.455322,1750.836426 3235.997803,1750.164551 
	C3216.922852,1741.373657 3196.910156,1739.661743 3176.418945,1742.881592 
	C3166.803223,1744.392456 3157.895264,1748.102173 3149.857910,1753.774780 
	C3128.182373,1769.073975 3119.374023,1803.538940 3149.889893,1824.223633 
	C3158.304688,1829.927612 3168.210938,1833.471191 3177.540039,1837.773682 
	C3184.465332,1840.967285 3191.792725,1843.349487 3198.522705,1846.888550 
	C3205.835205,1850.733887 3209.949707,1857.155396 3209.007568,1865.734131 
	C3208.007812,1874.836914 3201.968018,1879.625732 3193.696777,1882.179443 
	C3184.208740,1885.108765 3174.470215,1885.222656 3165.047607,1882.895874 
	C3154.826660,1880.372070 3144.934326,1876.518311 3134.229248,1873.026123 
	C3131.257568,1881.182495 3128.006592,1890.106201 3124.822510,1898.845703 
	C3143.084473,1910.243774 3170.084717,1914.333008 3198.821045,1909.980957 
M578.921204,1883.000610 
	C558.934998,1886.876221 540.731262,1881.400146 522.644958,1871.791504 
	C519.254211,1881.059082 515.987854,1889.986694 512.635498,1899.149414 
	C525.174622,1906.841309 538.462402,1909.643555 552.033630,1911.108521 
	C570.848145,1913.139160 589.389832,1911.851440 606.712769,1903.430664 
	C622.845337,1895.588745 632.727966,1882.982056 633.995972,1864.592041 
	C635.302368,1845.646729 626.894287,1831.609741 610.890625,1822.401611 
	C602.307251,1817.463013 592.778442,1814.171143 583.688843,1810.108032 
	C576.726624,1806.995728 569.308105,1804.587891 562.937866,1800.537354 
	C551.769043,1793.435547 552.568726,1779.450562 564.151978,1773.033325 
	C567.261841,1771.310669 570.973572,1770.294312 574.525085,1769.816772 
	C587.389038,1768.087158 599.701538,1770.316162 611.444946,1775.828125 
	C613.711792,1776.892212 616.077454,1777.745728 618.834656,1778.875366 
	C622.257385,1769.814697 625.387756,1761.528198 628.578735,1753.080933 
	C619.539734,1746.950195 609.887695,1744.309814 600.082458,1742.874023 
	C579.983398,1739.930908 560.195129,1740.503540 541.906128,1751.093994 
	C516.048950,1766.067017 505.375824,1804.202515 540.363708,1825.975708 
	C548.732483,1831.183716 558.430725,1834.236572 567.455383,1838.414673 
	C574.968567,1841.893188 583.064209,1844.625977 589.700867,1849.369385 
	C600.589478,1857.151978 599.258972,1872.634277 587.862183,1879.470215 
	C585.618164,1880.816162 582.960999,1881.473145 578.921204,1883.000610 
M2998.748291,1757.705200 
	C2971.324951,1776.100586 2959.821533,1802.187744 2961.613037,1834.669067 
	C2963.537842,1869.568726 2983.511230,1895.733521 3016.872559,1906.444580 
	C3044.193604,1915.216187 3071.378174,1912.995728 3098.292236,1904.266968 
	C3100.708984,1903.483154 3102.916992,1902.055664 3105.354980,1900.861816 
	C3102.998047,1891.688354 3100.793213,1883.106689 3098.400146,1873.791992 
	C3082.328125,1880.855957 3066.473633,1883.512451 3049.961914,1882.207520 
	C3022.543701,1880.040161 3002.338135,1860.513428 3000.066895,1833.841064 
	C2997.459473,1803.220337 3012.496582,1779.784546 3040.080322,1773.139404 
	C3048.658203,1771.073120 3057.967529,1770.502686 3066.762207,1771.280762 
	C3076.877441,1772.175781 3086.793213,1775.325928 3097.634033,1777.678467 
	C3100.278076,1769.601685 3103.227295,1760.592041 3106.126221,1751.736084 
	C3083.295166,1738.825317 3031.886719,1736.148804 2998.748291,1757.705200 
M2534.518066,1860.999756 
	C2534.518066,1876.544312 2534.518066,1892.088745 2534.518066,1907.924561 
	C2547.752441,1907.924561 2559.970947,1907.924561 2572.368164,1907.924561 
	C2572.368164,1853.458862 2572.368164,1799.398560 2572.368164,1745.459961 
	C2559.453857,1745.459961 2547.293213,1745.459961 2534.518066,1745.459961 
	C2534.518066,1783.778076 2534.518066,1821.388794 2534.518066,1860.999756 
M1601.988403,1744.792358 
	C1600.076660,1744.927246 1598.164917,1745.062134 1595.825073,1745.227295 
	C1595.825073,1799.628418 1595.825073,1853.499756 1595.825073,1907.832031 
	C1608.184448,1907.832031 1620.337891,1907.832031 1632.968018,1907.832031 
	C1632.968018,1853.558960 1632.968018,1799.748413 1632.968018,1744.791992 
	C1622.958496,1744.791992 1613.384888,1744.791992 1601.988403,1744.792358 
M670.311707,1775.011475 
	C670.311707,1819.214355 670.311707,1863.417114 670.311707,1907.704102 
	C683.578491,1907.704102 695.719604,1907.704102 707.837402,1907.704102 
	C707.837402,1853.298218 707.837402,1799.475586 707.837402,1745.468994 
	C695.159851,1745.468994 683.014587,1745.468994 670.311707,1745.468994 
	C670.311707,1755.092163 670.311707,1764.055054 670.311707,1775.011475 
M2925.688721,1803.000122 
	C2925.688721,1783.835693 2925.688721,1764.671265 2925.688721,1745.230957 
	C2912.430420,1745.230957 2900.554443,1745.230957 2888.259521,1745.230957 
	C2888.259521,1799.712158 2888.259521,1853.764648 2888.259521,1907.558716 
	C2901.004150,1907.558716 2913.120605,1907.558716 2925.688721,1907.558716 
	C2925.688721,1872.889282 2925.688721,1838.944824 2925.688721,1803.000122 
M668.112610,1695.644165 
	C664.704041,1704.260742 666.139771,1712.055176 672.804382,1718.417847 
	C680.025330,1725.311523 688.922546,1725.694702 697.902161,1723.026733 
	C707.511108,1720.171387 712.590576,1712.510986 712.137756,1702.823853 
	C711.687988,1693.201904 705.807739,1686.109985 696.281982,1683.700928 
	C684.838745,1680.807007 676.482178,1684.011353 668.112610,1695.644165 
M1609.817505,1724.142334 
	C1612.809448,1724.108276 1615.855225,1724.423828 1618.783081,1723.973022 
	C1626.914795,1722.721313 1633.352173,1718.648682 1635.850098,1710.559204 
	C1638.369751,1702.399414 1636.875977,1694.658936 1630.407959,1688.538940 
	C1623.874756,1682.357422 1612.012939,1680.951538 1603.237061,1685.207764 
	C1595.275757,1689.068970 1591.113159,1695.482666 1591.426270,1704.363159 
	C1591.808228,1715.197754 1598.094482,1721.251953 1609.817505,1724.142334 
M2884.228027,1698.257324 
	C2879.290283,1714.982544 2896.032227,1730.452759 2916.979736,1722.221924 
	C2925.073975,1719.041382 2929.673340,1711.641724 2929.413330,1703.466187 
	C2929.123047,1694.343140 2923.357422,1686.661011 2914.803467,1683.999878 
	C2902.286377,1680.105835 2891.603516,1684.613037 2884.228027,1698.257324 
M2538.040771,1719.278320 
	C2546.268066,1725.615479 2555.359375,1725.959595 2564.455811,1722.099121 
	C2578.925781,1715.957886 2580.818848,1696.138062 2568.084229,1686.954346 
	C2559.127441,1680.494995 2544.369873,1681.670776 2536.697021,1689.455200 
	C2528.890869,1697.375122 2528.975098,1707.619995 2538.040771,1719.278320 
z"/>
<path fill="#010101" opacity="1.000000" stroke="none" 
	d="
M1708.337280,1372.000244 
	C1708.337280,1412.279175 1708.337280,1451.557983 1708.337280,1491.395508 
	C1647.992676,1491.395508 1588.224121,1491.395508 1527.662720,1491.395508 
	C1527.662720,1488.105957 1527.662720,1485.186646 1527.662720,1482.267334 
	C1527.662842,1243.966431 1527.528076,1005.665344 1527.767090,767.364685 
	C1527.820435,714.167542 1552.861206,676.118469 1600.979736,653.522095 
	C1614.985352,646.945068 1629.978760,643.781555 1645.512939,643.792175 
	C1757.162598,643.868591 1868.817505,643.391052 1980.459717,644.358215 
	C2031.123657,644.797119 2081.630615,649.529175 2130.612793,663.811951 
	C2222.000732,690.459961 2274.267334,752.311768 2287.941895,845.415527 
	C2296.345215,902.627747 2289.388184,959.116943 2265.817871,1012.646118 
	C2244.194580,1061.753418 2206.796875,1094.770996 2158.253662,1115.984741 
	C2149.745850,1119.702759 2141.039307,1122.965698 2131.151855,1126.952026 
	C2134.691895,1128.456665 2137.220947,1129.521484 2139.742188,1130.605347 
	C2149.512695,1134.805664 2159.287354,1138.996216 2169.048096,1143.219116 
	C2207.271240,1159.755737 2233.338379,1188.551147 2251.676514,1225.150757 
	C2267.834961,1257.399658 2276.634277,1291.633301 2280.104492,1327.457642 
	C2283.731689,1364.906738 2287.540039,1402.348877 2292.113281,1439.690674 
	C2293.925781,1454.489624 2298.008545,1469.010742 2301.063232,1483.657104 
	C2301.595215,1486.209106 2302.155762,1488.755249 2302.751953,1491.531250 
	C2235.264893,1491.531250 2168.363770,1491.531250 2100.030273,1491.531250 
	C2096.670410,1472.456299 2092.746826,1453.617920 2090.136963,1434.599243 
	C2085.656494,1401.946411 2082.300049,1369.140015 2077.893066,1336.476196 
	C2074.504395,1311.360840 2069.148926,1286.617920 2058.448975,1263.432129 
	C2037.775146,1218.633789 2002.642700,1191.624268 1955.081177,1180.037231 
	C1924.459473,1172.577148 1893.293823,1170.206543 1861.917114,1170.136841 
	C1813.591797,1170.029541 1765.265991,1170.208862 1716.940308,1170.266235 
	C1714.615967,1170.268921 1712.291504,1170.266602 1710.239990,1170.266602 
	C1709.715820,1170.817749 1709.481689,1171.052124 1709.261597,1171.298828 
	C1709.044312,1171.542114 1708.658569,1171.797974 1708.658081,1172.049072 
	C1708.533203,1238.366089 1708.435669,1304.683105 1708.337280,1372.000244 
M1962.996582,1018.493530 
	C1980.687012,1018.600403 1998.257324,1017.466125 2015.653809,1013.978638 
	C2052.491943,1006.593933 2076.067383,984.889648 2086.245361,948.759766 
	C2093.413818,923.312500 2094.294434,897.431519 2089.458496,871.579163 
	C2082.112061,832.304688 2057.143311,806.850586 2017.561768,799.692627 
	C1999.991333,796.515259 1981.826050,795.573914 1963.921143,795.480835 
	C1882.288452,795.056519 1800.652466,795.294250 1719.017578,795.293945 
	C1715.771240,795.293884 1712.524780,795.293884 1708.832153,795.293884 
	C1708.832153,870.047302 1708.832153,943.836487 1708.832153,1018.493591 
	C1793.216919,1018.493591 1877.107422,1018.493591 1962.996582,1018.493530 
z"/>
<path fill="#010101" opacity="1.000000" stroke="none" 
	d="
M1348.352295,1223.582031 
	C1385.391968,1313.062012 1422.155518,1401.826294 1459.270752,1491.439697 
	C1390.634399,1491.439697 1323.151733,1491.439697 1254.664307,1491.439697 
	C1171.888184,1277.983643 1088.947510,1064.103516 1005.088501,847.855286 
	C919.637207,1063.711182 835.027222,1277.442139 750.300171,1491.468506 
	C683.719177,1491.468506 617.504333,1491.468506 550.494202,1491.468506 
	C551.494141,1488.660645 552.332336,1485.934204 553.418335,1483.310303 
	C660.787781,1223.877319 768.320190,964.511536 875.402893,704.960266 
	C890.902832,667.390991 927.581299,642.485596 967.442688,643.639893 
	C992.087463,644.353577 1016.789368,644.398071 1041.430908,643.630005 
	C1081.323608,642.386597 1118.328125,666.907776 1134.177002,705.454224 
	C1204.640503,876.829712 1275.687744,1047.965088 1346.525024,1219.186768 
	C1347.033813,1220.416870 1347.558716,1221.640015 1348.352295,1223.582031 
z"/>
<path fill="#FF8520" opacity="1.000000" stroke="none" 
	d="
M2577.475098,860.000122 
	C2577.475098,941.641479 2576.721924,1022.292664 2577.776123,1102.920288 
	C2578.350342,1146.835693 2581.559570,1190.740356 2584.544434,1234.584351 
	C2585.322510,1246.011963 2588.656250,1257.584351 2592.657959,1268.409302 
	C2601.779541,1293.084229 2619.153320,1310.333740 2643.573486,1320.327148 
	C2666.299805,1329.627319 2690.289551,1333.245117 2714.465332,1336.017334 
	C2751.620605,1340.277832 2788.928955,1340.238892 2826.248047,1340.156616 
	C2873.233154,1340.052979 2920.218506,1340.131714 2967.203857,1340.131714 
	C2970.826416,1340.131714 2974.449219,1340.131592 2978.771729,1340.131592 
	C2978.771729,1390.630371 2978.771729,1440.442627 2978.771729,1490.952759 
	C2976.751953,1491.242432 2974.573242,1491.829956 2972.395020,1491.827637 
	C2893.755615,1491.745239 2815.110352,1492.142090 2736.479492,1491.254761 
	C2696.548096,1490.804077 2656.604736,1488.531982 2617.064697,1482.024902 
	C2518.727539,1465.841309 2430.360352,1400.605225 2408.006104,1279.418213 
	C2403.553467,1255.279907 2401.293701,1230.565674 2400.193359,1206.019775 
	C2398.447998,1167.100098 2398.012939,1128.099487 2397.937744,1089.131348 
	C2397.687256,959.172668 2397.886963,829.213074 2397.767090,699.253967 
	C2397.756592,687.627075 2399.481201,676.670593 2406.082764,666.919067 
	C2416.092285,652.133301 2429.929688,643.887451 2447.965088,643.746643 
	C2473.288818,643.548828 2498.645752,644.468872 2523.932129,643.474060 
	C2549.795410,642.456482 2577.676270,662.921204 2577.534912,697.049988 
	C2577.311279,751.032532 2577.475342,805.016602 2577.475098,860.000122 
z"/>
<path fill="#FF8520" opacity="1.000000" stroke="none" 
	d="
M937.613892,1348.482666 
	C899.783142,1320.889648 882.763855,1284.130005 886.310669,1238.333008 
	C890.172546,1188.468140 929.442566,1144.676758 978.702087,1134.145142 
	C1044.265381,1120.127808 1107.004517,1160.686768 1121.108154,1226.205933 
	C1135.802002,1294.468384 1086.363770,1361.784180 1016.954834,1368.380127 
	C988.315857,1371.101929 962.160278,1364.662231 937.613892,1348.482666 
z"/>
<path fill="#050404" opacity="1.000000" stroke="none" 
	d="
M2488.633545,1855.995728 
	C2487.904053,1875.260864 2488.374756,1893.672363 2486.184814,1911.761841 
	C2482.162109,1944.994995 2462.193848,1964.880249 2430.045410,1972.561646 
	C2402.876465,1979.053467 2375.918213,1977.731812 2349.427246,1968.669800 
	C2346.604736,1967.704346 2343.841797,1966.524414 2341.145752,1965.245361 
	C2339.371826,1964.403687 2337.767090,1963.205322 2335.184082,1961.608643 
	C2338.373047,1952.687866 2341.561279,1943.769043 2345.010498,1934.120239 
	C2357.915039,1941.143921 2371.081055,1945.425659 2385.079590,1947.036377 
	C2397.103760,1948.419922 2408.941162,1948.161133 2420.621338,1944.462280 
	C2437.193848,1939.213989 2446.658691,1927.740845 2449.820557,1911.036865 
	C2451.173584,1903.889648 2451.378906,1896.524902 2452.232910,1887.985352 
	C2449.838867,1889.317261 2448.429443,1889.861328 2447.305420,1890.762329 
	C2423.223877,1910.066162 2396.392822,1912.880371 2368.397705,1902.093384 
	C2340.849121,1891.478516 2326.277344,1869.934448 2321.495850,1841.136841 
	C2319.146484,1826.985596 2320.404297,1813.119629 2324.443359,1799.663940 
	C2337.930176,1754.738281 2381.758301,1732.468872 2426.202393,1744.731323 
	C2434.254639,1746.953003 2441.359375,1752.680908 2448.815674,1756.940430 
	C2450.685547,1758.008545 2452.223389,1759.658447 2454.942627,1761.882446 
	C2455.506592,1755.838013 2455.956543,1751.017090 2456.470459,1745.509888 
	C2467.365723,1745.509888 2478.155762,1745.509888 2488.633789,1745.509888 
	C2488.633789,1782.054443 2488.633789,1818.525757 2488.633545,1855.995728 
M2370.959473,1863.903076 
	C2384.096191,1878.397339 2400.412842,1882.613037 2419.043945,1878.182861 
	C2437.998535,1873.675537 2450.084229,1859.010132 2450.869873,1839.667847 
	C2451.288574,1829.352539 2451.027344,1819.005859 2450.935303,1808.674683 
	C2450.841309,1798.102661 2446.477783,1789.369263 2439.003174,1782.078247 
	C2416.743652,1760.364990 2377.002441,1768.428833 2364.750732,1797.973633 
	C2355.606934,1820.023438 2356.104736,1842.166748 2370.959473,1863.903076 
z"/>
<path fill="#050404" opacity="1.000000" stroke="none" 
	d="
M1154.915283,1833.247314 
	C1159.157837,1848.039795 1162.818726,1862.207886 1167.031006,1876.210083 
	C1170.168335,1886.639282 1174.019165,1896.853760 1177.718506,1907.649048 
	C1165.302612,1907.649048 1152.575562,1907.649048 1138.856201,1907.649048 
	C1136.714600,1902.138428 1134.053711,1896.439575 1132.276611,1890.477539 
	C1128.668701,1878.373413 1125.534302,1866.128052 1122.216553,1853.937744 
	C1121.780640,1852.335571 1121.467773,1850.698853 1121.007446,1849.104370 
	C1113.459839,1822.955444 1101.420532,1813.907837 1074.027466,1813.807617 
	C1066.414429,1813.779785 1058.801147,1813.803345 1050.409424,1813.803345 
	C1050.409424,1845.224976 1050.409424,1876.045044 1050.409424,1907.571289 
	C1037.534546,1907.571289 1025.425293,1907.571289 1012.724976,1907.571289 
	C1012.724976,1834.218384 1012.724976,1760.775635 1012.724976,1686.287842 
	C1021.455322,1685.180664 1030.222534,1683.679321 1039.052246,1683.024414 
	C1062.646118,1681.274780 1086.353638,1679.757080 1109.752808,1684.198120 
	C1119.731567,1686.091919 1129.806396,1689.355469 1138.857300,1693.934204 
	C1175.944092,1712.695557 1177.992188,1764.914185 1147.409180,1788.890747 
	C1141.954468,1793.166992 1135.839478,1796.601196 1129.239014,1800.944458 
	C1141.195312,1808.726074 1149.866333,1819.124390 1154.915283,1833.247314 
M1087.850220,1785.555054 
	C1096.353027,1782.920044 1105.463013,1781.445923 1113.222168,1777.388672 
	C1126.161011,1770.622803 1131.535400,1758.873535 1130.606567,1744.148804 
	C1129.680664,1729.468750 1121.792725,1720.007202 1108.681274,1714.867188 
	C1089.793579,1707.462891 1070.286011,1709.185059 1050.637939,1711.282593 
	C1050.637939,1736.536499 1050.637939,1760.946777 1050.637939,1785.701050 
	C1062.859741,1785.701050 1074.452148,1785.701050 1087.850220,1785.555054 
z"/>
<path fill="#040303" opacity="1.000000" stroke="none" 
	d="
M1673.529175,1797.683594 
	C1685.765869,1758.156494 1725.116211,1732.779785 1772.426636,1744.035156 
	C1782.522705,1746.437134 1791.331909,1751.539673 1800.963135,1759.663574 
	C1800.963135,1743.430054 1800.963257,1729.301636 1800.963257,1715.173218 
	C1800.963257,1700.911255 1800.963135,1686.649414 1800.963135,1671.973877 
	C1813.785278,1671.973877 1825.679443,1671.973877 1838.910156,1671.973877 
	C1838.910156,1750.453491 1838.910156,1828.814697 1838.910156,1907.728271 
	C1828.682739,1907.728271 1817.542236,1907.728271 1806.110962,1907.728271 
	C1805.557983,1901.643433 1805.026733,1895.797729 1804.372925,1888.601685 
	C1802.143799,1890.330688 1800.844238,1891.119995 1799.811646,1892.171631 
	C1767.943848,1924.622925 1691.039551,1922.053345 1672.279419,1854.614502 
	C1667.095215,1835.978027 1667.682495,1817.074585 1673.529175,1797.683594 
M1708.239746,1839.882446 
	C1708.705933,1841.821045 1709.138062,1843.768433 1709.643066,1845.696655 
	C1716.671387,1872.530518 1736.950439,1886.003052 1764.267334,1881.997803 
	C1783.891602,1879.120483 1799.143921,1863.486816 1800.392212,1843.814087 
	C1801.149048,1831.887817 1800.982544,1819.850952 1800.398071,1807.904541 
	C1799.625977,1792.125244 1790.881958,1781.187866 1777.050903,1774.500000 
	C1752.760498,1762.754395 1724.525513,1773.392212 1713.349976,1797.998779 
	C1707.508179,1810.861206 1706.973511,1824.357666 1708.239746,1839.882446 
z"/>
<path fill="#050404" opacity="1.000000" stroke="none" 
	d="
M1525.427002,1897.556641 
	C1504.230713,1911.366455 1481.858887,1914.988770 1457.965332,1910.006348 
	C1446.380005,1907.590576 1436.230957,1902.211914 1426.185547,1893.526367 
	C1426.185547,1920.323730 1426.185547,1946.008423 1426.185547,1972.283203 
	C1413.034546,1972.283203 1400.863525,1972.283203 1387.475342,1972.283203 
	C1387.475342,1896.628296 1387.475342,1821.233032 1387.475342,1745.321045 
	C1397.941895,1745.321045 1408.804688,1745.321045 1420.959351,1745.321045 
	C1421.409424,1751.723511 1421.859131,1758.120850 1422.405273,1765.891602 
	C1424.276367,1764.284058 1425.214844,1763.560181 1426.059814,1762.739990 
	C1446.782959,1742.624268 1472.072754,1737.828125 1499.131836,1743.251953 
	C1531.187988,1749.677368 1549.707642,1771.121704 1557.199341,1802.179321 
	C1561.990601,1822.042480 1560.447388,1841.908203 1553.399536,1861.126587 
	C1547.995850,1875.861816 1538.852905,1887.952026 1525.427002,1897.556641 
M1502.231689,1873.434082 
	C1524.482666,1856.600098 1528.329956,1811.812012 1509.695312,1787.756958 
	C1498.117554,1772.811157 1477.503784,1766.582397 1458.478027,1772.441895 
	C1439.773804,1778.202271 1426.286743,1795.364624 1425.722534,1814.507690 
	C1425.458008,1823.482910 1425.657837,1832.472412 1425.676514,1841.455444 
	C1425.712402,1858.586548 1434.275513,1870.670044 1449.065674,1877.951904 
	C1466.815674,1886.690552 1484.420898,1885.470703 1502.231689,1873.434082 
z"/>
<path fill="#040404" opacity="1.000000" stroke="none" 
	d="
M378.020386,1839.802002 
	C368.388275,1839.802002 359.750946,1839.802002 350.610931,1839.802002 
	C342.228180,1862.507568 333.961853,1884.897949 325.525269,1907.749390 
	C312.700104,1907.749390 299.886475,1907.749390 286.244629,1907.749390 
	C314.588409,1832.709473 342.743683,1758.168701 370.923401,1683.562988 
	C385.162323,1683.562988 398.778412,1683.562988 413.632507,1683.562988 
	C441.820038,1757.862915 470.163025,1832.572754 498.764069,1907.962646 
	C484.626007,1907.962646 471.694244,1907.962646 458.403564,1907.962646 
	C449.886932,1885.500244 441.416901,1863.160889 432.560333,1839.802002 
	C414.814819,1839.802002 396.915009,1839.802002 378.020386,1839.802002 
M410.471100,1776.432007 
	C404.128143,1759.057007 397.785187,1741.682129 391.438568,1724.297119 
	C380.904083,1753.165894 370.495056,1781.690796 359.838715,1810.893555 
	C381.221436,1810.893555 401.644440,1810.893555 423.395721,1810.893555 
	C419.121674,1799.383301 415.122253,1788.612671 410.471100,1776.432007 
z"/>
<path fill="#050404" opacity="1.000000" stroke="none" 
	d="
M2297.687500,1824.152588 
	C2297.368164,1886.092773 2252.250244,1910.471924 2211.745117,1912.035522 
	C2199.308594,1912.515625 2187.137207,1911.124756 2175.385010,1907.086426 
	C2133.533447,1892.704468 2116.553711,1855.355591 2120.802734,1817.725098 
	C2125.896240,1772.615356 2158.274658,1743.386108 2203.750732,1741.596191 
	C2218.494873,1741.015747 2232.980469,1742.169678 2246.839355,1747.823364 
	C2274.709229,1759.193481 2291.063477,1779.793579 2296.170166,1809.360352 
	C2296.960205,1813.933960 2297.195557,1818.603394 2297.687500,1824.152588 
M2207.227783,1884.225708 
	C2230.592529,1883.565063 2247.017334,1871.976318 2254.648682,1850.082642 
	C2261.053955,1831.705933 2260.224609,1813.378784 2251.749023,1795.822021 
	C2243.335693,1778.393799 2229.239746,1769.218994 2209.651367,1769.175293 
	C2189.930908,1769.131226 2174.887939,1777.406006 2166.082520,1795.262085 
	C2156.614014,1814.463501 2155.864746,1834.430298 2164.299561,1854.098267 
	C2171.950928,1871.938965 2185.592285,1882.548462 2207.227783,1884.225708 
z"/>
<path fill="#050404" opacity="1.000000" stroke="none" 
	d="
M771.647583,1817.530518 
	C792.483704,1806.325562 814.565369,1803.650879 836.930054,1802.269775 
	C840.522827,1802.047852 844.141052,1802.238647 847.730225,1802.238647 
	C847.907959,1782.704956 839.425476,1772.433228 821.558777,1769.635498 
	C804.549133,1766.972168 788.487427,1770.409058 773.010620,1777.397705 
	C770.342529,1778.602417 767.709045,1779.883911 764.433960,1781.423950 
	C761.305847,1773.375366 758.319336,1765.690918 755.113098,1757.441284 
	C757.611816,1755.892334 759.688354,1754.359619 761.965332,1753.231567 
	C784.824036,1741.905518 809.210083,1739.070557 834.010376,1742.659668 
	C866.256836,1747.326294 884.672913,1768.985107 885.775696,1802.500244 
	C886.465820,1823.474731 885.731567,1844.492554 886.111023,1865.482300 
	C886.362915,1879.414917 887.453857,1893.332275 888.194519,1907.749756 
	C877.523743,1907.749756 865.984131,1907.749756 854.350830,1907.749756 
	C853.478027,1903.048218 852.647461,1898.573730 851.611694,1892.994263 
	C849.031921,1894.905273 847.285095,1896.243042 845.494324,1897.519043 
	C825.197388,1911.982056 802.790955,1915.791626 779.030823,1909.180420 
	C760.726929,1904.087402 747.869202,1892.287354 744.199951,1873.091064 
	C740.392090,1853.169678 746.531921,1836.241333 762.743958,1823.478394 
	C765.348267,1821.428223 768.241272,1819.744751 771.647583,1817.530518 
M839.239014,1828.168823 
	C831.957581,1828.872192 824.609131,1829.175171 817.411499,1830.379395 
	C808.208191,1831.919067 799.222656,1834.492798 791.516968,1840.135498 
	C782.552490,1846.699951 779.043518,1857.743652 782.304810,1868.645630 
	C784.874084,1877.234253 792.946533,1883.828369 803.449341,1884.033813 
	C810.946472,1884.180298 818.949646,1883.643921 825.897400,1881.124634 
	C838.066956,1876.711914 846.977966,1867.987183 848.516724,1854.404663 
	C849.471008,1845.981079 848.693848,1837.361572 848.693848,1828.102051 
	C845.669617,1828.102051 843.403381,1828.102051 839.239014,1828.168823 
z"/>
<path fill="#050404" opacity="1.000000" stroke="none" 
	d="
M1281.591675,1741.799072 
	C1287.772583,1742.750977 1293.137329,1743.192627 1298.231689,1744.608276 
	C1322.182007,1751.263794 1337.383667,1769.635010 1340.008423,1794.998901 
	C1340.692749,1801.610718 1340.921631,1808.288452 1341.006470,1814.940308 
	C1341.303833,1838.247803 1341.300537,1861.560059 1341.735352,1884.864502 
	C1341.871338,1892.151611 1343.031250,1899.419556 1343.849731,1908.034546 
	C1332.598145,1908.549683 1321.216553,1908.162231 1309.256348,1908.296997 
	C1308.459961,1903.285767 1307.754639,1898.847290 1306.873901,1893.305176 
	C1304.450439,1894.875977 1302.608521,1895.950806 1300.893433,1897.199707 
	C1281.373047,1911.413086 1259.660278,1915.440796 1236.462280,1909.846191 
	C1216.803589,1905.105103 1203.097656,1893.127930 1199.056274,1872.690186 
	C1195.171265,1853.043091 1201.664551,1836.519287 1217.195923,1823.879883 
	C1229.648315,1813.746094 1244.454468,1808.621582 1260.025146,1806.104004 
	C1274.104126,1803.827515 1288.358276,1802.634766 1302.596436,1800.956909 
	C1302.864624,1782.827881 1294.479492,1772.536499 1276.795166,1769.659912 
	C1259.772949,1766.891235 1243.740845,1770.494019 1228.195923,1777.187256 
	C1225.510376,1778.343506 1222.924438,1779.731323 1219.416992,1781.438354 
	C1216.242554,1773.361084 1213.254761,1765.758667 1209.891602,1757.201172 
	C1231.873169,1743.777344 1255.728516,1740.462036 1281.591675,1741.799072 
M1271.934326,1883.933960 
	C1301.750488,1876.697021 1307.672852,1857.845215 1302.522217,1827.428955 
	C1291.794312,1828.520020 1280.911499,1829.186279 1270.184570,1830.854736 
	C1261.338013,1832.230713 1252.784668,1835.086548 1245.588501,1840.846436 
	C1237.507446,1847.314819 1234.207153,1857.751221 1237.032349,1867.625122 
	C1239.783569,1877.240967 1247.269897,1883.220825 1258.275146,1884.175171 
	C1262.215454,1884.516724 1266.217407,1884.146851 1271.934326,1883.933960 
z"/>
<path fill="#050404" opacity="1.000000" stroke="none" 
	d="
M2004.358032,1867.696899 
	C2004.358032,1871.579468 2004.358032,1874.494507 2004.358032,1878.005127 
	C2039.141113,1878.005127 2072.983887,1878.005127 2107.589600,1878.005127 
	C2107.589600,1888.060913 2107.589600,1897.502197 2107.589600,1907.621460 
	C2061.277832,1907.621460 2014.523193,1907.621460 1967.165283,1907.621460 
	C1967.165283,1833.291260 1967.165283,1758.872437 1967.165283,1683.848877 
	C1979.311035,1683.848877 1991.477417,1683.848877 2004.358032,1683.848877 
	C2004.358032,1744.960815 2004.358032,1805.845093 2004.358032,1867.696899 
z"/>
<path fill="#040303" opacity="1.000000" stroke="none" 
	d="
M2773.383789,1711.621582 
	C2774.628906,1709.459473 2775.654053,1707.348999 2777.129150,1706.964600 
	C2787.702881,1704.209106 2798.368408,1701.804810 2810.356445,1698.969360 
	C2810.453125,1706.812866 2810.576416,1713.951660 2810.619385,1721.090820 
	C2810.663330,1728.409058 2810.628906,1735.727661 2810.628906,1744.319336 
	C2825.610107,1745.526001 2840.444824,1744.264404 2855.652344,1745.047363 
	C2855.652344,1754.466797 2855.652344,1763.255859 2855.652344,1773.015625 
	C2840.763916,1773.015625 2826.241455,1773.015625 2811.095215,1773.015625 
	C2810.910156,1776.826416 2810.651855,1779.719971 2810.647705,1782.613770 
	C2810.614746,1805.929321 2810.574951,1829.244995 2810.679932,1852.560059 
	C2810.699219,1856.863892 2811.048828,1861.220093 2811.792725,1865.456299 
	C2813.852783,1877.193115 2819.581787,1882.072266 2831.693115,1881.974365 
	C2838.274170,1881.921143 2844.847656,1880.923950 2852.492188,1880.259888 
	C2852.929688,1884.697998 2853.536133,1889.176636 2853.767334,1893.674561 
	C2853.987061,1897.951660 2853.814697,1902.249023 2853.814697,1907.257690 
	C2837.020264,1912.447998 2820.124756,1914.106201 2803.084473,1908.697388 
	C2783.699707,1902.544678 2775.467529,1887.756714 2774.082520,1868.658936 
	C2773.216797,1856.721802 2773.455322,1844.696899 2773.396484,1832.710571 
	C2773.302002,1813.401001 2773.371094,1794.090576 2773.371094,1773.331665 
	C2764.336426,1773.331665 2755.605225,1773.331665 2746.526367,1773.331665 
	C2746.526367,1763.309937 2746.526367,1754.735352 2746.526367,1744.810791 
	C2750.847168,1744.810791 2755.066162,1744.810791 2759.284912,1744.810791 
	C2763.560303,1744.810791 2767.835938,1744.810791 2773.372559,1744.810791 
	C2773.372559,1733.494629 2773.372559,1722.983398 2773.383789,1711.621582 
z"/>
<path fill="#060505" opacity="1.000000" stroke="none" 
	d="
M2621.589844,1765.824829 
	C2630.734131,1753.390625 2642.656738,1746.584229 2656.829834,1743.676147 
	C2680.032227,1738.915527 2702.343750,1741.323730 2724.454346,1752.599121 
	C2721.016602,1761.561768 2717.760010,1770.051514 2714.236328,1779.237549 
	C2702.786621,1773.320190 2691.619873,1769.014893 2679.459229,1769.440430 
	C2673.257080,1769.657349 2666.591309,1770.153320 2661.033936,1772.580688 
	C2647.785156,1778.367188 2646.744385,1793.228271 2658.956055,1800.839722 
	C2665.362549,1804.832764 2672.828125,1807.110229 2679.765381,1810.271362 
	C2689.416748,1814.668823 2699.518066,1818.342285 2708.554932,1823.775635 
	C2738.644531,1841.866699 2736.493164,1884.935181 2705.552246,1901.778442 
	C2687.606201,1911.547607 2668.160156,1913.169678 2648.314941,1911.176270 
	C2634.415527,1909.779907 2620.790039,1906.948730 2608.250000,1899.125244 
	C2611.528564,1890.131714 2614.687500,1881.466431 2617.785645,1872.967407 
	C2628.436768,1876.445068 2638.518311,1880.391846 2648.940430,1882.949585 
	C2658.701904,1885.345215 2668.826416,1885.208984 2678.507568,1881.781494 
	C2685.780029,1879.207031 2691.366455,1874.824951 2692.392090,1866.424194 
	C2693.442871,1857.818359 2690.004150,1851.251831 2682.607910,1847.291138 
	C2675.910400,1843.704712 2668.684326,1841.113647 2661.738037,1837.980957 
	C2652.975098,1834.029297 2643.686035,1830.880127 2635.632080,1825.790161 
	C2612.812256,1811.369019 2607.981934,1790.158936 2621.589844,1765.824829 
z"/>
<path fill="#060505" opacity="1.000000" stroke="none" 
	d="
M3197.967773,1910.072144 
	C3170.084717,1914.333008 3143.084473,1910.243774 3124.822510,1898.845703 
	C3128.006592,1890.106201 3131.257568,1881.182495 3134.229248,1873.026123 
	C3144.934326,1876.518311 3154.826660,1880.372070 3165.047607,1882.895874 
	C3174.470215,1885.222656 3184.208740,1885.108765 3193.696777,1882.179443 
	C3201.968018,1879.625732 3208.007812,1874.836914 3209.007568,1865.734131 
	C3209.949707,1857.155396 3205.835205,1850.733887 3198.522705,1846.888550 
	C3191.792725,1843.349487 3184.465332,1840.967285 3177.540039,1837.773682 
	C3168.210938,1833.471191 3158.304688,1829.927612 3149.889893,1824.223633 
	C3119.374023,1803.538940 3128.182373,1769.073975 3149.857910,1753.774780 
	C3157.895264,1748.102173 3166.803223,1744.392456 3176.418945,1742.881592 
	C3196.910156,1739.661743 3216.922852,1741.373657 3235.997803,1750.164551 
	C3237.455322,1750.836426 3238.772949,1751.812378 3240.680664,1752.963867 
	C3237.409912,1761.604126 3234.271240,1769.894775 3230.838135,1778.963013 
	C3227.734619,1777.644409 3225.075195,1776.589233 3222.477783,1775.398560 
	C3210.666992,1769.984131 3198.243896,1767.735718 3185.502686,1770.094238 
	C3180.561768,1771.008789 3175.309082,1773.589966 3171.576172,1776.944824 
	C3164.898926,1782.945190 3165.445312,1793.486450 3172.720947,1798.787231 
	C3178.264893,1802.826538 3184.881104,1805.479492 3191.202148,1808.348022 
	C3201.475830,1813.010132 3212.192627,1816.777710 3222.176025,1821.973389 
	C3232.467529,1827.329712 3240.225342,1835.573853 3243.974365,1846.961304 
	C3250.314453,1866.219482 3243.711182,1886.414429 3227.229736,1898.376709 
	C3218.699707,1904.567627 3209.028076,1907.918457 3197.967773,1910.072144 
z"/>
<path fill="#060505" opacity="1.000000" stroke="none" 
	d="
M579.707764,1882.724243 
	C582.960999,1881.473145 585.618164,1880.816162 587.862183,1879.470215 
	C599.258972,1872.634277 600.589478,1857.151978 589.700867,1849.369385 
	C583.064209,1844.625977 574.968567,1841.893188 567.455383,1838.414673 
	C558.430725,1834.236572 548.732483,1831.183716 540.363708,1825.975708 
	C505.375824,1804.202515 516.048950,1766.067017 541.906128,1751.093994 
	C560.195129,1740.503540 579.983398,1739.930908 600.082458,1742.874023 
	C609.887695,1744.309814 619.539734,1746.950195 628.578735,1753.080933 
	C625.387756,1761.528198 622.257385,1769.814697 618.834656,1778.875366 
	C616.077454,1777.745728 613.711792,1776.892212 611.444946,1775.828125 
	C599.701538,1770.316162 587.389038,1768.087158 574.525085,1769.816772 
	C570.973572,1770.294312 567.261841,1771.310669 564.151978,1773.033325 
	C552.568726,1779.450562 551.769043,1793.435547 562.937866,1800.537354 
	C569.308105,1804.587891 576.726624,1806.995728 583.688843,1810.108032 
	C592.778442,1814.171143 602.307251,1817.463013 610.890625,1822.401611 
	C626.894287,1831.609741 635.302368,1845.646729 633.995972,1864.592041 
	C632.727966,1882.982056 622.845337,1895.588745 606.712769,1903.430664 
	C589.389832,1911.851440 570.848145,1913.139160 552.033630,1911.108521 
	C538.462402,1909.643555 525.174622,1906.841309 512.635498,1899.149414 
	C515.987854,1889.986694 519.254211,1881.059082 522.644958,1871.791504 
	C540.731262,1881.400146 558.934998,1886.876221 579.707764,1882.724243 
z"/>
<path fill="#060505" opacity="1.000000" stroke="none" 
	d="
M2999.343750,1757.283936 
	C3031.886719,1736.148804 3083.295166,1738.825317 3106.126221,1751.736084 
	C3103.227295,1760.592041 3100.278076,1769.601685 3097.634033,1777.678467 
	C3086.793213,1775.325928 3076.877441,1772.175781 3066.762207,1771.280762 
	C3057.967529,1770.502686 3048.658203,1771.073120 3040.080322,1773.139404 
	C3012.496582,1779.784546 2997.459473,1803.220337 3000.066895,1833.841064 
	C3002.338135,1860.513428 3022.543701,1880.040161 3049.961914,1882.207520 
	C3066.473633,1883.512451 3082.328125,1880.855957 3098.400146,1873.791992 
	C3100.793213,1883.106689 3102.998047,1891.688354 3105.354980,1900.861816 
	C3102.916992,1902.055664 3100.708984,1903.483154 3098.292236,1904.266968 
	C3071.378174,1912.995728 3044.193604,1915.216187 3016.872559,1906.444580 
	C2983.511230,1895.733521 2963.537842,1869.568726 2961.613037,1834.669067 
	C2959.821533,1802.187744 2971.324951,1776.100586 2999.343750,1757.283936 
z"/>
<path fill="#0D0C0C" opacity="1.000000" stroke="none" 
	d="
M2534.518066,1859.999634 
	C2534.518066,1821.388794 2534.518066,1783.778076 2534.518066,1745.459961 
	C2547.293213,1745.459961 2559.453857,1745.459961 2572.368164,1745.459961 
	C2572.368164,1799.398560 2572.368164,1853.458862 2572.368164,1907.924561 
	C2559.970947,1907.924561 2547.752441,1907.924561 2534.518066,1907.924561 
	C2534.518066,1892.088745 2534.518066,1876.544312 2534.518066,1859.999634 
z"/>
<path fill="#070606" opacity="1.000000" stroke="none" 
	d="
M1602.899902,1744.792236 
	C1613.384888,1744.791992 1622.958496,1744.791992 1632.968018,1744.791992 
	C1632.968018,1799.748413 1632.968018,1853.558960 1632.968018,1907.832031 
	C1620.337891,1907.832031 1608.184448,1907.832031 1595.825073,1907.832031 
	C1595.825073,1853.499756 1595.825073,1799.628418 1595.825073,1745.227295 
	C1598.164917,1745.062134 1600.076660,1744.927246 1602.899902,1744.792236 
z"/>
<path fill="#050404" opacity="1.000000" stroke="none" 
	d="
M670.311707,1774.014648 
	C670.311707,1764.055054 670.311707,1755.092163 670.311707,1745.468994 
	C683.014587,1745.468994 695.159851,1745.468994 707.837402,1745.468994 
	C707.837402,1799.475586 707.837402,1853.298218 707.837402,1907.704102 
	C695.719604,1907.704102 683.578491,1907.704102 670.311707,1907.704102 
	C670.311707,1863.417114 670.311707,1819.214355 670.311707,1774.014648 
z"/>
<path fill="#050404" opacity="1.000000" stroke="none" 
	d="
M2925.688721,1804.000244 
	C2925.688721,1838.944824 2925.688721,1872.889282 2925.688721,1907.558716 
	C2913.120605,1907.558716 2901.004150,1907.558716 2888.259521,1907.558716 
	C2888.259521,1853.764648 2888.259521,1799.712158 2888.259521,1745.230957 
	C2900.554443,1745.230957 2912.430420,1745.230957 2925.688721,1745.230957 
	C2925.688721,1764.671265 2925.688721,1783.835693 2925.688721,1804.000244 
z"/>
<path fill="#070606" opacity="1.000000" stroke="none" 
	d="
M668.433960,1694.949951 
	C676.482178,1684.011353 684.838745,1680.807007 696.281982,1683.700928 
	C705.807739,1686.109985 711.687988,1693.201904 712.137756,1702.823853 
	C712.590576,1712.510986 707.511108,1720.171387 697.902161,1723.026733 
	C688.922546,1725.694702 680.025330,1725.311523 672.804382,1718.417847 
	C666.139771,1712.055176 664.704041,1704.260742 668.433960,1694.949951 
z"/>
<path fill="#070606" opacity="1.000000" stroke="none" 
	d="
M1608.985596,1724.050171 
	C1598.094482,1721.251953 1591.808228,1715.197754 1591.426270,1704.363159 
	C1591.113159,1695.482666 1595.275757,1689.068970 1603.237061,1685.207764 
	C1612.012939,1680.951538 1623.874756,1682.357422 1630.407959,1688.538940 
	C1636.875977,1694.658936 1638.369751,1702.399414 1635.850098,1710.559204 
	C1633.352173,1718.648682 1626.914795,1722.721313 1618.783081,1723.973022 
	C1615.855225,1724.423828 1612.809448,1724.108276 1608.985596,1724.050171 
z"/>
<path fill="#070606" opacity="1.000000" stroke="none" 
	d="
M2884.454102,1697.483398 
	C2891.603516,1684.613037 2902.286377,1680.105835 2914.803467,1683.999878 
	C2923.357422,1686.661011 2929.123047,1694.343140 2929.413330,1703.466187 
	C2929.673340,1711.641724 2925.073975,1719.041382 2916.979736,1722.221924 
	C2896.032227,1730.452759 2879.290283,1714.982544 2884.454102,1697.483398 
z"/>
<path fill="#060505" opacity="1.000000" stroke="none" 
	d="
M2537.487305,1718.742676 
	C2528.975098,1707.619995 2528.890869,1697.375122 2536.697021,1689.455200 
	C2544.369873,1681.670776 2559.127441,1680.494995 2568.084229,1686.954346 
	C2580.818848,1696.138062 2578.925781,1715.957886 2564.455811,1722.099121 
	C2555.359375,1725.959595 2546.268066,1725.615479 2537.487305,1718.742676 
z"/>
<path fill="#FEFEFE" opacity="1.000000" stroke="none" 
	d="
M1961.997314,1018.493530 
	C1877.107422,1018.493591 1793.216919,1018.493591 1708.832153,1018.493591 
	C1708.832153,943.836487 1708.832153,870.047302 1708.832153,795.293884 
	C1712.524780,795.293884 1715.771240,795.293884 1719.017578,795.293945 
	C1800.652466,795.294250 1882.288452,795.056519 1963.921143,795.480835 
	C1981.826050,795.573914 1999.991333,796.515259 2017.561768,799.692627 
	C2057.143311,806.850586 2082.112061,832.304688 2089.458496,871.579163 
	C2094.294434,897.431519 2093.413818,923.312500 2086.245361,948.759766 
	C2076.067383,984.889648 2052.491943,1006.593933 2015.653809,1013.978638 
	C1998.257324,1017.466125 1980.687012,1018.600403 1961.997314,1018.493530 
z"/>
<path fill="#FCFCFC" opacity="1.000000" stroke="none" 
	d="
M2370.504883,1863.333740 
	C2356.104736,1842.166748 2355.606934,1820.023438 2364.750732,1797.973633 
	C2377.002441,1768.428833 2416.743652,1760.364990 2439.003174,1782.078247 
	C2446.477783,1789.369263 2450.841309,1798.102661 2450.935303,1808.674683 
	C2451.027344,1819.005859 2451.288574,1829.352539 2450.869873,1839.667847 
	C2450.084229,1859.010132 2437.998535,1873.675537 2419.043945,1878.182861 
	C2400.412842,1882.613037 2384.096191,1878.397339 2370.504883,1863.333740 
z"/>
<path fill="#FBFCFC" opacity="1.000000" stroke="none" 
	d="
M1086.947510,1785.628052 
	C1074.452148,1785.701050 1062.859741,1785.701050 1050.637939,1785.701050 
	C1050.637939,1760.946777 1050.637939,1736.536499 1050.637939,1711.282593 
	C1070.286011,1709.185059 1089.793579,1707.462891 1108.681274,1714.867188 
	C1121.792725,1720.007202 1129.680664,1729.468750 1130.606567,1744.148804 
	C1131.535400,1758.873535 1126.161011,1770.622803 1113.222168,1777.388672 
	C1105.463013,1781.445923 1096.353027,1782.920044 1086.947510,1785.628052 
z"/>
<path fill="#FCFDFD" opacity="1.000000" stroke="none" 
	d="
M1708.143555,1838.991089 
	C1706.973511,1824.357666 1707.508179,1810.861206 1713.349976,1797.998779 
	C1724.525513,1773.392212 1752.760498,1762.754395 1777.050903,1774.500000 
	C1790.881958,1781.187866 1799.625977,1792.125244 1800.398071,1807.904541 
	C1800.982544,1819.850952 1801.149048,1831.887817 1800.392212,1843.814087 
	C1799.143921,1863.486816 1783.891602,1879.120483 1764.267334,1881.997803 
	C1736.950439,1886.003052 1716.671387,1872.530518 1709.643066,1845.696655 
	C1709.138062,1843.768433 1708.705933,1841.821045 1708.143555,1838.991089 
z"/>
<path fill="#FBFCFC" opacity="1.000000" stroke="none" 
	d="
M1501.637939,1873.858398 
	C1484.420898,1885.470703 1466.815674,1886.690552 1449.065674,1877.951904 
	C1434.275513,1870.670044 1425.712402,1858.586548 1425.676514,1841.455444 
	C1425.657837,1832.472412 1425.458008,1823.482910 1425.722534,1814.507690 
	C1426.286743,1795.364624 1439.773804,1778.202271 1458.478027,1772.441895 
	C1477.503784,1766.582397 1498.117554,1772.811157 1509.695312,1787.756958 
	C1528.329956,1811.812012 1524.482666,1856.600098 1501.637939,1873.858398 
z"/>
<path fill="#F6F5F5" opacity="1.000000" stroke="none" 
	d="
M410.796967,1777.136963 
	C415.122253,1788.612671 419.121674,1799.383301 423.395721,1810.893555 
	C401.644440,1810.893555 381.221436,1810.893555 359.838715,1810.893555 
	C370.495056,1781.690796 380.904083,1753.165894 391.438568,1724.297119 
	C397.785187,1741.682129 404.128143,1759.057007 410.796967,1777.136963 
z"/>
<path fill="#FCFCFC" opacity="1.000000" stroke="none" 
	d="
M2206.345215,1884.177002 
	C2185.592285,1882.548462 2171.950928,1871.938965 2164.299561,1854.098267 
	C2155.864746,1834.430298 2156.614014,1814.463501 2166.082520,1795.262085 
	C2174.887939,1777.406006 2189.930908,1769.131226 2209.651367,1769.175293 
	C2229.239746,1769.218994 2243.335693,1778.393799 2251.749023,1795.822021 
	C2260.224609,1813.378784 2261.053955,1831.705933 2254.648682,1850.082642 
	C2247.017334,1871.976318 2230.592529,1883.565063 2206.345215,1884.177002 
z"/>
<path fill="#FBFCFC" opacity="1.000000" stroke="none" 
	d="
M840.188110,1828.135498 
	C843.403381,1828.102051 845.669617,1828.102051 848.693848,1828.102051 
	C848.693848,1837.361572 849.471008,1845.981079 848.516724,1854.404663 
	C846.977966,1867.987183 838.066956,1876.711914 825.897400,1881.124634 
	C818.949646,1883.643921 810.946472,1884.180298 803.449341,1884.033813 
	C792.946533,1883.828369 784.874084,1877.234253 782.304810,1868.645630 
	C779.043518,1857.743652 782.552490,1846.699951 791.516968,1840.135498 
	C799.222656,1834.492798 808.208191,1831.919067 817.411499,1830.379395 
	C824.609131,1829.175171 831.957581,1828.872192 840.188110,1828.135498 
z"/>
<path fill="#FBFCFC" opacity="1.000000" stroke="none" 
	d="
M1271.062744,1884.017822 
	C1266.217407,1884.146851 1262.215454,1884.516724 1258.275146,1884.175171 
	C1247.269897,1883.220825 1239.783569,1877.240967 1237.032349,1867.625122 
	C1234.207153,1857.751221 1237.507446,1847.314819 1245.588501,1840.846436 
	C1252.784668,1835.086548 1261.338013,1832.230713 1270.184570,1830.854736 
	C1280.911499,1829.186279 1291.794312,1828.520020 1302.522217,1827.428955 
	C1307.672852,1857.845215 1301.750488,1876.697021 1271.062744,1884.017822 
z"/>
</svg>